<?xml version="1.0" standalone="no"?>
<!DOCTYPE svg PUBLIC "-//W3C//DTD SVG 20010904//EN"
 "http://www.w3.org/TR/2001/REC-SVG-20010904/DTD/svg10.dtd">
<svg version="1.0" xmlns="http://www.w3.org/2000/svg"
 width="709.000000pt" height="215.000000pt" viewBox="0 0 709.000000 215.000000"
 preserveAspectRatio="xMidYMid meet">

<g transform="translate(0.000000,215.000000) scale(0.100000,-0.100000)"
fill="#ffffff" stroke="none">
<path d="M1160 1709 c-344 -29 -610 -226 -675 -500 -62 -263 76 -535 335 -663
154 -75 223 -90 435 -90 144 -1 194 3 250 17 106 28 241 97 320 164 59 50 70
64 68 88 -4 54 -11 53 -75 -9 -281 -275 -753 -142 -853 239 -71 273 105 559
384 625 75 18 221 8 292 -19 106 -40 108 -23 -26 -237 -65 -104 -125 -200
-134 -214 l-16 -24 50 27 c28 16 141 81 252 145 229 132 218 113 127 211 -163
177 -435 266 -734 240z"/>
<path d="M2585 1493 c-38 -11 -478 -173 -483 -178 -3 -3 99 -5 226 -5 211 0
231 -1 236 -17 3 -10 19 -70 36 -133 17 -63 33 -123 36 -132 4 -13 -9 -8 -46
17 -132 89 -301 96 -457 20 -145 -71 -215 -208 -178 -348 36 -138 152 -231
321 -257 145 -23 305 31 408 136 l53 53 23 -84 22 -85 184 0 c101 0 184 2 184
5 0 3 -50 191 -111 418 -87 324 -117 422 -141 460 -30 47 -83 90 -142 115 -33
15 -140 24 -171 15z m0 -543 c77 -37 120 -131 96 -210 -16 -53 -72 -116 -118
-131 -139 -45 -280 83 -243 222 13 47 63 107 105 125 44 19 113 17 160 -6z"/>
<path d="M3410 1486 c-19 -7 -111 -48 -205 -92 l-170 -79 128 -3 127 -3 0
-414 0 -415 185 0 185 0 0 390 0 391 25 24 c34 35 96 35 130 0 l25 -24 0 -391
0 -390 185 0 185 0 0 440 c0 419 -1 443 -20 479 -24 49 -60 78 -113 92 -60 16
-86 9 -256 -70 -84 -39 -156 -71 -161 -71 -5 0 -13 15 -19 33 -14 42 -54 81
-103 101 -45 19 -81 20 -128 2z"/>
<path d="M4783 1486 c-265 -61 -446 -326 -405 -593 33 -211 198 -388 403 -433
80 -18 230 -8 300 19 298 115 425 452 279 741 -102 202 -352 317 -577 266z
m90 -81 c13 -8 29 -25 35 -38 12 -23 189 -678 192 -712 5 -48 -2 -69 -34 -101
-26 -26 -42 -34 -70 -34 -45 0 -91 23 -107 51 -6 12 -53 179 -106 373 -66 246
-93 361 -89 385 13 82 108 123 179 76z"/>
<path d="M5760 1493 c-36 -12 -366 -166 -374 -174 -6 -5 41 -9 112 -9 l122 0
0 -415 0 -415 185 0 185 0 0 384 0 384 26 31 c33 40 89 43 131 7 l28 -24 3
-391 3 -391 184 0 185 0 0 433 c0 397 -2 435 -19 472 -34 75 -116 123 -191
111 -21 -3 -99 -35 -174 -70 -180 -86 -172 -84 -189 -44 -34 81 -143 137 -217
111z"/>
</g>
</svg>
